<svg width="750" height="557" viewBox="0 0 750 557" fill="none" xmlns="http://www.w3.org/2000/svg">
  <g id="construction 1">
    <path
      id="Vector"
      d="M538.528 263.438C542.91 249.653 543.671 234.972 540.735 220.809C535.954 198.71 520.559 171.957 476.133 160.416C392.029 138.558 362.817 74.6304 284.146 95.0016C284.146 95.0016 241.916 102.676 221.934 172.54C201.952 242.404 123.658 243.593 150.618 304.421C155.021 314.372 166.883 325.215 183.925 335.464L503.047 334.389C525.031 307.875 531.894 284.942 538.528 263.438Z"
      fill="#EBEBFF"/>
    <path
      id="Vector_2"
      d="M463.243 213.488H451.278V200.38C451.275 197.252 450.215 194.216 448.27 191.766C446.324 189.316 443.608 187.595 440.561 186.883V170.63H436.157V186.575C432.718 186.896 429.522 188.49 427.195 191.043C424.868 193.596 423.578 196.926 423.575 200.38V213.854H411.634V228.884H410.834V256.793L389.193 256.644V223.279H364.418V247.734H346.986V271.479H325.952V334.389H498.449V255.066H463.22L463.243 213.488Z"
      fill="#D6D7F4"/>
    <path id="Vector_3" d="M216.227 248.043V216.783H227.951V200.06H232.354V216.783H243.152V248.043H255.265V266.767H274.561V202.977H314.868V334.366H288.607H277.294H248.825H235.671H201.323V248.043H216.227Z" fill="#D6D7F4"/>
    <path
      id="Vector_4"
      d="M436.398 334.046L252.725 334.183C249.388 334.183 246.188 332.857 243.829 330.498C241.469 328.138 240.144 324.938 240.144 321.601L449.002 321.441C449.005 323.097 448.681 324.737 448.049 326.268C447.417 327.799 446.488 329.189 445.317 330.36C444.146 331.531 442.755 332.46 441.225 333.092C439.694 333.725 438.054 334.049 436.398 334.046Z"
      fill="#3D5AC4"/>
    <path
      id="Vector_5"
      d="M436.398 329.71L252.714 329.847C250.135 329.851 247.618 329.061 245.502 327.586C243.387 326.111 241.776 324.022 240.887 321.601H240.109C240.109 324.938 241.435 328.138 243.794 330.497C246.154 332.857 249.354 334.182 252.691 334.182L436.363 334.045C439.7 334.045 442.901 332.72 445.26 330.36C447.62 328.001 448.945 324.8 448.945 321.463H448.167C447.282 323.875 445.68 325.958 443.576 327.433C441.472 328.907 438.967 329.702 436.398 329.71Z"
      fill="#5571E9"/>
    <path
      id="Vector_6"
      d="M356.411 325.73H332.689C331.572 325.73 330.5 325.287 329.709 324.498C328.917 323.709 328.471 322.638 328.468 321.521V321.521H360.632C360.626 322.637 360.179 323.706 359.389 324.495C358.598 325.283 357.528 325.727 356.411 325.73V325.73Z"
      fill="#27429C"/>
    <path
      id="Vector_7"
      d="M438.239 321.441L250.861 321.589L250.781 208.501C250.778 206.958 251.079 205.43 251.668 204.003C252.256 202.577 253.12 201.281 254.21 200.188C255.3 199.096 256.595 198.23 258.02 197.639C259.445 197.047 260.973 196.743 262.516 196.743L426.389 196.617C427.932 196.616 429.46 196.918 430.885 197.507C432.311 198.096 433.607 198.96 434.699 200.05C435.791 201.139 436.657 202.434 437.249 203.858C437.841 205.283 438.146 206.81 438.148 208.353L438.239 321.441Z"
      fill="#5571E9"/>
    <path id="Vector_8" d="M428.425 206.454H260.572V311.753H428.425V206.454Z" fill="#312C76"/>
    <path id="Vector_9" d="M428.46 301.687H260.606V311.753H428.46V301.687Z" fill="#151247"/>
    <path id="Vector_10" d="M428.391 206.454H260.538V211.452H428.391V206.454Z" fill="#151247"/>
    <path id="Vector_11" opacity="0.16" d="M316.515 206.477L260.572 262.5L260.618 311.821H260.732L365.951 206.431L316.515 206.477Z" fill="#5571E9"/>
    <path id="Vector_12" opacity="0.16" d="M282.293 311.81L307.079 311.775L412.298 206.397L387.511 206.42L282.293 311.81Z" fill="#5571E9"/>
    <path id="Vector_13" opacity="0.16" d="M408.729 311.695L428.459 291.942L428.425 254.562L369.21 311.73L408.729 311.695Z" fill="#5571E9"/>
    <path id="Vector_14" d="M438.239 251.428H250.781V272.12H438.239V251.428Z" fill="#F5D100"/>
    <g id="Group">
      <path id="Vector_15" d="M274.16 279.383H258.033L271.919 247.62H288.046L274.16 279.383Z" fill="white"/>
      <path id="Vector_16" d="M308.555 279.383H292.427L306.313 247.62H322.44L308.555 279.383Z" fill="white"/>
      <path id="Vector_17" d="M342.96 279.383H326.821L340.707 247.62H356.835L342.96 279.383Z" fill="white"/>
      <path id="Vector_18" d="M377.354 279.383H361.227L375.113 247.62H391.24L377.354 279.383Z" fill="white"/>
      <path id="Vector_19" d="M411.749 279.383H395.621L409.507 247.62H425.634L411.749 279.383Z" fill="white"/>
    </g>
    <path id="Vector_20" d="M235.728 215.696L232.057 215.833L229.918 215.158C229.438 214.997 228.919 215 228.441 215.165C227.963 215.331 227.553 215.65 227.276 216.073L227.013 216.474L237.719 222.387L239.743 217.949L235.728 215.696Z" fill="#14103D"/>
    <path
      id="Vector_21"
      d="M237.73 222.49L226.933 216.519L227.31 215.833C227.328 215.801 227.352 215.773 227.381 215.751C227.409 215.729 227.442 215.712 227.477 215.703C227.512 215.693 227.549 215.69 227.585 215.695C227.621 215.7 227.656 215.712 227.688 215.73L238.234 221.552L237.73 222.49"
      fill="#14103D"/>
    <path id="Vector_22" d="M239.789 217.949L242.626 213.054L239.789 207.998L235.728 215.696L239.789 217.949Z" fill="#EB8175"/>
    <path id="Vector_23" d="M261.968 189.777C261.968 189.777 246.698 185.396 245.234 189.514C243.77 193.632 234.859 211.876 234.859 211.876L241.505 215.307L251.467 197.99L264.884 196.846L261.968 189.777Z" fill="#14103D"/>
    <path id="Vector_24" d="M249.557 221.255L246.606 223.154L244.398 223.6C243.901 223.692 243.449 223.946 243.111 224.323C242.774 224.699 242.571 225.177 242.534 225.681V226.162H254.773L254.43 221.266L249.557 221.255Z" fill="#14103D"/>
    <path
      id="Vector_25"
      d="M254.75 226.23H242.408V225.453C242.408 225.416 242.415 225.381 242.429 225.348C242.443 225.314 242.463 225.284 242.489 225.258C242.514 225.233 242.544 225.213 242.578 225.199C242.611 225.185 242.647 225.178 242.683 225.178H254.738V226.242"
      fill="#14103D"/>
    <path id="Vector_26" d="M254.35 221.255L254.75 213.054L249.866 212.505L249.557 221.255H254.35Z" fill="#EB8175"/>
    <path
      id="Vector_27"
      d="M264.026 189.08L249.637 189.732C249.637 189.732 247.567 189.846 247.704 194.684C247.841 199.523 247.83 219.024 247.83 219.024L254.75 219.265L256.065 198.848L270.477 198.665C271.97 198.665 273.43 198.232 274.682 197.421C275.935 196.609 276.925 195.452 277.534 194.089C278.038 192.987 278.178 191.754 277.935 190.567L264.026 189.08Z"
      fill="#231C61"/>
    <path
      id="Vector_28"
      d="M250.369 186.174C250.369 187.535 249.454 187.741 248.082 187.741C246.709 187.741 245.428 187.547 245.428 186.186C245.428 185.531 245.688 184.902 246.152 184.439C246.615 183.975 247.243 183.715 247.899 183.715C248.554 183.715 249.182 183.975 249.646 184.439C250.109 184.902 250.369 185.531 250.369 186.186V186.174Z"
      fill="#E1AD9D"/>
    <path
      id="Vector_29"
      d="M252.108 187.57H249.248C248.89 187.567 248.547 187.424 248.293 187.172C248.039 186.92 247.893 186.578 247.887 186.22V186.22C247.89 185.86 248.035 185.516 248.289 185.261C248.544 185.006 248.888 184.862 249.248 184.859H252.108C252.467 184.859 252.811 185.001 253.066 185.254C253.321 185.506 253.466 185.85 253.469 186.209C253.466 186.569 253.322 186.913 253.067 187.168C252.812 187.422 252.468 187.567 252.108 187.57V187.57Z"
      fill="#E1AD9D"/>
    <path
      id="Vector_30"
      d="M252.005 187.856L251.044 183.177L262.791 181.896L265.147 168.171C265.387 166.924 267.183 165.38 268.441 165.62L268.075 165.517C268.724 165.67 269.298 166.048 269.693 166.585C270.089 167.121 270.282 167.78 270.237 168.445L267.949 184.87C267.869 185.305 267.664 185.707 267.359 186.028C267.055 186.349 266.664 186.574 266.234 186.677L252.005 187.856Z"
      fill="#C8C6F2"/>
    <path
      id="Vector_31"
      d="M275.464 165.917C275.707 165.941 275.945 165.995 276.174 166.078H276.288C277.264 166.511 278.102 167.207 278.708 168.087C279.313 168.967 279.663 169.998 279.719 171.065L277.889 190.509C265.708 190.406 263.981 189.011 263.981 189.011L264.953 169.086C265.101 167.21 265.959 165.437 268.098 165.266L275.464 165.917Z"
      fill="#D8D7FD"/>
    <path
      id="Vector_32"
      d="M262.059 187.707C262.162 189.068 261.247 189.331 259.886 189.423C258.525 189.514 257.221 189.423 257.129 188.039C257.092 187.389 257.314 186.751 257.744 186.264C258.175 185.776 258.781 185.478 259.43 185.435C260.079 185.391 260.719 185.605 261.211 186.03C261.704 186.456 262.008 187.058 262.059 187.707V187.707Z"
      fill="#EB8175"/>
    <path
      id="Vector_33"
      d="M263.889 188.977L261.041 189.171C260.681 189.196 260.327 189.078 260.054 188.842C259.782 188.606 259.614 188.272 259.588 187.913V187.913C259.566 187.554 259.687 187.2 259.925 186.93C260.163 186.66 260.498 186.495 260.858 186.472L263.706 186.277C263.883 186.265 264.061 186.288 264.23 186.344C264.398 186.401 264.554 186.49 264.688 186.607C264.822 186.724 264.931 186.866 265.01 187.025C265.089 187.185 265.135 187.358 265.147 187.535V187.535C265.159 187.713 265.137 187.891 265.08 188.059C265.023 188.228 264.934 188.384 264.817 188.517C264.7 188.651 264.558 188.761 264.399 188.84C264.239 188.918 264.066 188.965 263.889 188.977V188.977Z"
      fill="#EB8175"/>
    <path
      id="Vector_34"
      d="M263.763 189.274L262.505 184.699L275.304 182.64L274.572 170.733C274.678 170.054 275.015 169.433 275.525 168.972C276.035 168.512 276.688 168.241 277.374 168.205V168.205C278.033 168.316 278.63 168.658 279.06 169.17C279.489 169.681 279.723 170.328 279.719 170.996L280.645 185.259C280.598 185.695 280.425 186.108 280.15 186.448C279.874 186.789 279.506 187.043 279.09 187.181L263.763 189.274Z"
      fill="#D8D7FD"/>
    <path
      id="Vector_35"
      d="M241.642 173.455L255.619 174.782C255.842 174.802 256.052 174.898 256.212 175.054C256.373 175.21 256.474 175.417 256.5 175.64L257.964 188.222C257.989 188.371 257.98 188.523 257.937 188.668C257.893 188.813 257.817 188.946 257.715 189.056C257.612 189.167 257.485 189.252 257.344 189.306C257.202 189.36 257.051 189.38 256.9 189.365L242.694 188.027C242.468 188.005 242.257 187.905 242.097 187.744C241.936 187.584 241.836 187.372 241.814 187.147L240.578 174.565C240.559 174.418 240.572 174.269 240.618 174.129C240.664 173.989 240.741 173.861 240.843 173.754C240.945 173.647 241.07 173.565 241.209 173.514C241.347 173.462 241.495 173.442 241.642 173.455Z"
      fill="#091218"/>
    <path
      id="Vector_36"
      d="M240.887 173.387L254.853 174.702C255.077 174.719 255.287 174.815 255.448 174.972C255.609 175.128 255.71 175.336 255.733 175.56L257.198 188.142C257.225 188.291 257.218 188.445 257.175 188.59C257.133 188.736 257.057 188.87 256.954 188.981C256.85 189.093 256.722 189.178 256.58 189.231C256.437 189.284 256.285 189.302 256.134 189.285L241.939 187.947C241.713 187.927 241.5 187.827 241.339 187.666C241.178 187.505 241.079 187.293 241.058 187.066L239.823 174.485C239.806 174.339 239.821 174.192 239.867 174.053C239.914 173.914 239.991 173.787 240.093 173.682C240.195 173.577 240.319 173.496 240.457 173.444C240.594 173.393 240.741 173.374 240.887 173.387V173.387Z"
      fill="#1B2934"/>
    <path
      id="Vector_37"
      d="M257.575 188.325L267.115 189.228C267.184 189.234 267.251 189.253 267.313 189.285C267.375 189.317 267.429 189.361 267.474 189.414C267.519 189.467 267.552 189.529 267.573 189.595C267.594 189.661 267.601 189.731 267.595 189.8C267.581 189.939 267.513 190.066 267.406 190.156C267.3 190.245 267.162 190.29 267.023 190.281L256.901 189.365L257.575 188.325Z"
      fill="#091218"/>
    <path
      id="Vector_38"
      d="M248.894 181.016C248.867 181.319 248.751 181.607 248.561 181.844C248.37 182.08 248.113 182.255 247.823 182.346C247.533 182.436 247.222 182.438 246.931 182.351C246.639 182.265 246.38 182.094 246.186 181.859C245.992 181.625 245.873 181.339 245.842 181.036C245.811 180.734 245.872 180.429 246.015 180.161C246.158 179.892 246.377 179.673 246.646 179.53C246.914 179.387 247.219 179.327 247.521 179.357C247.922 179.398 248.291 179.595 248.548 179.905C248.805 180.215 248.929 180.614 248.894 181.016Z"
      fill="white"/>
    <path id="Vector_39" d="M274.172 173.455L274.481 182.411L262.539 184.676L273.062 181.393L274.172 173.455Z" fill="#C8C6F2"/>
    <path
      id="Vector_40"
      d="M267.835 164.728L268.624 166.878C268.769 167.255 269.018 167.584 269.342 167.825C269.666 168.066 270.052 168.21 270.454 168.239V168.239C270.813 168.265 271.172 168.198 271.497 168.044C271.822 167.891 272.102 167.656 272.31 167.363C272.518 167.07 272.647 166.728 272.684 166.371C272.722 166.014 272.667 165.653 272.525 165.323L271.129 162.017L267.835 164.728Z"
      fill="#EB8175"/>
    <path id="Vector_41" d="M268.544 166.592C268.544 166.592 272.479 165.849 271.896 162.406C271.312 158.963 267.618 161.651 267.618 161.651L267.984 165.083L268.544 166.592Z" fill="#E16C5F"/>
    <path
      id="Vector_42"
      d="M262.471 156.298C261.951 157.405 261.772 158.64 261.955 159.849C262.139 161.057 262.676 162.184 263.5 163.087C264.325 163.99 265.398 164.627 266.585 164.92C267.772 165.212 269.018 165.146 270.168 164.729C271.317 164.312 272.316 163.564 273.04 162.579C273.763 161.594 274.178 160.416 274.232 159.195C274.286 157.974 273.977 156.764 273.343 155.719C272.709 154.674 271.78 153.841 270.672 153.324C269.189 152.636 267.494 152.563 265.958 153.12C264.421 153.677 263.168 154.82 262.471 156.298V156.298Z"
      fill="#EB8175"/>
    <g id="Group_2">
      <path
        id="Vector_43"
        d="M270.352 160.176C270.352 160.176 269.379 165.117 273.017 165.231C276.654 165.346 274.675 155.955 274.675 155.955L268.956 150.167L260.149 152.34L261.029 158.06C261.029 158.06 262.425 158.803 269.985 157.556L270.352 160.176Z"
        fill="#231C61"/>
      <path id="Vector_44" d="M266.76 156.31L269.654 160.542L272.147 157.785L266.76 156.31Z" fill="#231C61"/>
    </g>
    <path
      id="Vector_45"
      d="M269.379 159.032C269.232 159.344 269.182 159.693 269.234 160.034C269.287 160.375 269.439 160.693 269.673 160.947C269.906 161.201 270.21 161.38 270.545 161.461C270.881 161.542 271.233 161.521 271.556 161.401C271.88 161.281 272.16 161.068 272.362 160.788C272.564 160.509 272.679 160.175 272.69 159.83C272.702 159.486 272.611 159.145 272.429 158.852C272.247 158.559 271.981 158.327 271.667 158.185C271.25 158.004 270.779 157.991 270.353 158.149C269.926 158.306 269.577 158.623 269.379 159.032V159.032Z"
      fill="#EB8175"/>
    <path
      id="Vector_46"
      d="M261.27 157.934C261.27 157.934 259.943 153.073 263.088 150.053C263.708 149.461 264.441 149.002 265.244 148.702C266.046 148.402 266.901 148.269 267.757 148.31C268.612 148.35 269.451 148.564 270.221 148.939C270.992 149.313 271.678 149.84 272.239 150.488C273.606 152.252 274.325 154.433 274.275 156.664L261.27 157.934Z"
      fill="#F5D100"/>
    <path
      id="Vector_47"
      d="M261.944 157.854V154.811C261.938 154.441 262.077 154.082 262.331 153.813C262.586 153.544 262.935 153.385 263.306 153.37V153.37C263.67 153.353 264.027 153.477 264.304 153.715C264.58 153.953 264.755 154.288 264.793 154.651L265.09 157.682"
      stroke="#F1AB00"
      stroke-width="0.28"
      stroke-miterlimit="10"/>
    <path id="Vector_48" d="M274.286 156.676L260.126 158.025" stroke="white" stroke-width="1.12" stroke-linecap="round" stroke-linejoin="round"/>
    <path id="Vector_49" d="M403.216 320.754L406.396 323.831L402.77 325.776L399.67 322.745L403.216 320.754Z" fill="#EB8175"/>
    <path id="Vector_50" d="M380.878 297.775L382.994 307.166C383.441 309.087 384.261 310.902 385.407 312.508L399.373 325.089L404.897 320.583L392.979 308.001L388.61 291.267L380.878 297.775Z" fill="#14103D"/>
    <path
      id="Vector_51"
      d="M402.667 325.684L401.523 329.333L400.219 331.152C399.922 331.557 399.767 332.049 399.777 332.551C399.787 333.053 399.963 333.538 400.276 333.931L400.562 334.309L409.473 326.005L405.915 322.676L402.667 325.684Z"
      fill="#14103D"/>
    <path id="Vector_52" d="M409.564 326.039L400.585 334.4L399.864 333.634L408.843 325.261L409.564 326.039Z" fill="#14103D"/>
    <path id="Vector_53" d="M372.688 326.462L371.498 330.443L367.403 329.345L368.604 325.444L372.688 326.462Z" fill="#EB8175"/>
    <path id="Vector_54" d="M378.144 287.31L366.706 326.028L373.934 327.823L380.431 308.424L388.358 295.728C388.772 295.159 389.154 294.567 389.502 293.955C390.113 292.821 390.424 291.549 390.405 290.261V287.744L378.144 287.31Z" fill="#231C61"/>
    <path id="Vector_55" d="M367.643 329.013L364.029 330.351L361.741 330.431C361.235 330.44 360.746 330.616 360.35 330.933C359.955 331.25 359.676 331.689 359.557 332.181L359.442 332.65L371.544 334.64L372.013 329.745L367.643 329.013Z" fill="#14103D"/>
    <path id="Vector_56" d="M371.613 334.675L359.408 332.673L359.58 331.621L371.784 333.634L371.613 334.675Z" fill="#14103D"/>
    <path id="Vector_57" d="M362.188 247.986L357.555 255.203L359.774 256.804L364.567 249.164L362.188 247.986Z" fill="#334FBE"/>
    <path
      id="Vector_58"
      d="M356.171 236.01C356.171 236.01 358.31 244.966 369.153 248.489C369.306 248.537 369.443 248.627 369.547 248.748C369.652 248.869 369.722 249.017 369.748 249.175C369.953 250.001 369.828 250.874 369.402 251.61C368.975 252.347 368.279 252.888 367.46 253.121C367.346 253.149 367.227 253.153 367.111 253.133C366.995 253.114 366.885 253.071 366.786 253.007C365.127 251.977 356.972 247.208 349.057 248.58L356.171 236.01Z"
      fill="#4265D1"/>
    <path id="Vector_59" d="M356.171 236.01C356.171 236.01 354.181 244.943 349.08 248.592C349.08 248.58 349.8 240.757 356.171 236.01Z" fill="#334FBE"/>
    <path
      id="Vector_60"
      d="M356.045 254.734C355.939 255.605 356.148 256.486 356.635 257.216C357.122 257.946 357.854 258.478 358.699 258.714C359.489 258.877 360.311 258.718 360.985 258.274C361.658 257.83 362.128 257.137 362.29 256.347C362.396 255.474 362.185 254.593 361.696 253.862C361.207 253.132 360.472 252.601 359.625 252.366C359.235 252.286 358.832 252.284 358.441 252.36C358.049 252.435 357.677 252.587 357.344 252.807C357.011 253.027 356.726 253.311 356.503 253.641C356.28 253.972 356.124 254.343 356.045 254.734V254.734Z"
      fill="#EB8175"/>
    <path id="Vector_61" d="M364.738 259.561L361.536 256.209L359.431 258.794L364.738 262.683" fill="#EB8175"/>
    <path
      id="Vector_62"
      d="M364.235 256.461L360.804 261.505L370.137 269.992C370.702 270.152 371.291 270.21 371.876 270.164L384.126 268.574C384.585 268.554 385.036 268.442 385.452 268.247C385.868 268.052 386.242 267.776 386.551 267.436C386.86 267.096 387.099 266.698 387.254 266.265C387.409 265.832 387.477 265.373 387.454 264.914V264.914C387.363 262.981 387.74 260.19 385.807 260.339L371.578 263.255L364.235 256.461Z"
      fill="#C8C6F2"/>
    <path
      id="Vector_63"
      d="M391.698 268.036C391.866 266.723 391.658 265.389 391.1 264.189C390.541 262.988 389.654 261.971 388.541 261.254C387.756 260.632 386.786 260.29 385.784 260.281C384.416 260.398 383.113 260.918 382.04 261.775C380.967 262.632 380.172 263.788 379.757 265.097C377.926 270.701 377.4 287.275 377.4 287.275L390.531 287.733L391.698 268.036Z"
      fill="#D8D7FD"/>
    <path id="Vector_64" d="M386.848 268.448L390.805 282.963L391.595 270.656L386.848 268.448Z" fill="#C8C6F2"/>
    <path
      id="Vector_65"
      d="M402.941 297.078C403.545 296.436 403.897 295.599 403.935 294.72C403.973 293.84 403.693 292.976 403.147 292.285C402.603 291.693 401.848 291.34 401.045 291.301C400.242 291.262 399.456 291.542 398.858 292.079C398.255 292.721 397.902 293.558 397.864 294.437C397.826 295.317 398.106 296.181 398.652 296.872C399.196 297.464 399.951 297.817 400.754 297.856C401.557 297.894 402.343 297.615 402.941 297.078V297.078Z"
      fill="#EB8175"/>
    <path id="Vector_66" d="M396.982 286.749L399.384 292.651L402.598 291.805L400.608 285.537" fill="#EB8175"/>
    <path
      id="Vector_67"
      d="M397.142 291.267L403.708 289.814L399.258 274.568C399.088 274.003 398.821 273.473 398.469 273.001L390.279 262.821C389.135 261.231 387.317 261.517 385.704 262.615C384.945 263.148 384.428 263.959 384.265 264.872C384.102 265.785 384.307 266.725 384.835 267.487L392.716 276.97L397.142 291.267Z"
      fill="#D8D7FD"/>
    <path
      id="Vector_68"
      d="M382.719 258.291L382.971 260.579C383.016 260.984 383.177 261.368 383.435 261.684C383.692 262.001 384.036 262.236 384.423 262.363V262.363C384.768 262.474 385.136 262.496 385.492 262.425C385.847 262.354 386.179 262.194 386.455 261.959C386.731 261.724 386.943 261.422 387.07 261.083C387.196 260.743 387.234 260.377 387.18 260.018L386.619 256.45L382.719 258.291Z"
      fill="#EB8175"/>
    <path id="Vector_69" d="M382.936 260.384C382.936 260.384 386.985 260.247 387.271 256.735C387.557 253.224 383.256 255.306 383.256 255.306L382.753 258.737L382.936 260.384Z" fill="#E16C5F"/>
    <path
      id="Vector_70"
      d="M379.551 248.729C378.765 249.684 378.281 250.85 378.159 252.08C378.037 253.31 378.282 254.549 378.865 255.639C379.447 256.729 380.34 257.622 381.43 258.205C382.52 258.788 383.759 259.034 384.989 258.912C386.219 258.79 387.386 258.306 388.34 257.52C389.295 256.735 389.995 255.684 390.352 254.501C390.709 253.317 390.707 252.055 390.346 250.872C389.985 249.69 389.281 248.642 388.324 247.86C387.044 246.815 385.402 246.319 383.758 246.482C382.113 246.645 380.6 247.453 379.551 248.729Z"
      fill="#EB8175"/>
    <g id="Group_3">
      <path
        id="Vector_71"
        d="M386.311 254.448C386.311 254.448 384.126 259.023 387.66 260.064C391.195 261.105 391.595 251.383 391.595 251.383L387.397 244.28L378.247 244.211L377.686 250.01C377.686 250.01 378.83 251.085 386.596 251.749L386.311 254.448Z"
        fill="#231C61"/>
      <path id="Vector_72" d="M383.76 249.77L385.544 254.631L388.667 252.561L383.76 249.77Z" fill="#231C61"/>
    </g>
    <path
      id="Vector_73"
      d="M385.647 253.087C385.427 253.357 385.292 253.686 385.26 254.033C385.227 254.379 385.298 254.728 385.463 255.034C385.628 255.341 385.88 255.591 386.188 255.754C386.496 255.917 386.845 255.986 387.191 255.951C387.537 255.916 387.866 255.779 388.134 255.557C388.403 255.336 388.6 255.039 388.7 254.706C388.8 254.373 388.8 254.017 388.698 253.684C388.596 253.351 388.398 253.056 388.129 252.835C387.95 252.688 387.743 252.578 387.521 252.512C387.299 252.445 387.066 252.422 386.836 252.446C386.605 252.469 386.381 252.538 386.177 252.648C385.973 252.758 385.793 252.907 385.647 253.087Z"
      fill="#EB8175"/>
    <path
      id="Vector_74"
      d="M377.938 250.525C377.938 250.525 377.629 245.435 381.369 243.113C382.103 242.653 382.923 242.348 383.779 242.214C384.635 242.081 385.509 242.122 386.348 242.336C387.187 242.55 387.974 242.932 388.662 243.458C389.349 243.985 389.923 244.646 390.348 245.4C391.333 247.434 391.588 249.744 391.068 251.943L377.938 250.525Z"
      fill="#F5D100"/>
    <path
      id="Vector_75"
      d="M378.612 250.582L379.207 247.574C379.285 247.207 379.5 246.884 379.809 246.671C380.117 246.458 380.495 246.372 380.866 246.43V246.43C381.231 246.492 381.559 246.691 381.782 246.987C382.005 247.282 382.107 247.652 382.067 248.02L381.735 251.074"
      stroke="#F1AB00"
      stroke-width="0.28"
      stroke-miterlimit="10"/>
    <path id="Vector_76" d="M391.08 251.989L376.782 250.376" stroke="white" stroke-width="1.13" stroke-linecap="round" stroke-linejoin="round"/>
    <path id="Vector_77" d="M478.352 288.991L463.563 303.575" stroke="#3D5AC4" stroke-width="2.65" stroke-miterlimit="10"/>
    <path id="Vector_78" d="M478.352 273.412L463.563 287.996" stroke="#3D5AC4" stroke-width="2.65" stroke-miterlimit="10"/>
    <path id="Vector_79" d="M478.352 257.822L463.563 272.406" stroke="#3D5AC4" stroke-width="2.65" stroke-miterlimit="10"/>
    <path id="Vector_80" d="M478.352 242.244L463.563 256.827" stroke="#3D5AC4" stroke-width="2.65" stroke-miterlimit="10"/>
    <path id="Vector_81" d="M478.352 226.654L463.563 241.237" stroke="#3D5AC4" stroke-width="2.65" stroke-miterlimit="10"/>
    <path id="Vector_82" d="M478.352 211.064L463.563 225.647" stroke="#3D5AC4" stroke-width="2.65" stroke-miterlimit="10"/>
    <path id="Vector_83" d="M478.352 195.485L463.563 210.068" stroke="#3D5AC4" stroke-width="2.65" stroke-miterlimit="10"/>
    <path id="Vector_84" d="M478.352 179.895L463.563 194.478" stroke="#3D5AC4" stroke-width="2.65" stroke-miterlimit="10"/>
    <path id="Vector_85" d="M478.352 164.316L463.563 178.9" stroke="#3D5AC4" stroke-width="2.65" stroke-miterlimit="10"/>
    <path id="Vector_86" d="M478.352 148.726L463.563 163.31" stroke="#3D5AC4" stroke-width="2.65" stroke-miterlimit="10"/>
    <path id="Vector_87" d="M478.352 133.136L463.563 147.731" stroke="#3D5AC4" stroke-width="2.65" stroke-miterlimit="10"/>
    <path id="Vector_88" d="M463.563 287.996H478.352" stroke="#3D5AC4" stroke-width="2.65" stroke-miterlimit="10"/>
    <path id="Vector_89" d="M463.563 272.406H478.352" stroke="#3D5AC4" stroke-width="2.65" stroke-miterlimit="10"/>
    <path id="Vector_90" d="M463.563 256.827H478.352" stroke="#3D5AC4" stroke-width="2.65" stroke-miterlimit="10"/>
    <path id="Vector_91" d="M463.563 241.237H478.352" stroke="#3D5AC4" stroke-width="2.65" stroke-miterlimit="10"/>
    <path id="Vector_92" d="M463.563 225.647H478.352" stroke="#3D5AC4" stroke-width="2.65" stroke-miterlimit="10"/>
    <path id="Vector_93" d="M463.563 210.068H478.352" stroke="#3D5AC4" stroke-width="2.65" stroke-miterlimit="10"/>
    <path id="Vector_94" d="M463.563 194.478H478.352" stroke="#3D5AC4" stroke-width="2.65" stroke-miterlimit="10"/>
    <path id="Vector_95" d="M463.563 178.9H478.352" stroke="#3D5AC4" stroke-width="2.65" stroke-miterlimit="10"/>
    <path id="Vector_96" d="M463.563 163.31H478.352" stroke="#3D5AC4" stroke-width="2.65" stroke-miterlimit="10"/>
    <path id="Vector_97" d="M463.563 147.731H478.352" stroke="#3D5AC4" stroke-width="2.65" stroke-miterlimit="10"/>
    <path id="Vector_98" d="M463.563 307.807V135.629" stroke="#5571E9" stroke-width="2.65" stroke-miterlimit="10"/>
    <path id="Vector_99" d="M478.353 307.807V135.629" stroke="#5571E9" stroke-width="2.65" stroke-miterlimit="10"/>
    <path id="Vector_100" d="M485.398 303.574H455.934V334.183H485.398V303.574Z" fill="#231C61"/>
    <path
      id="Vector_101"
      d="M478.387 106.485H462.991C460.275 106.485 458.073 108.687 458.073 111.404V130.722C458.073 133.439 460.275 135.641 462.991 135.641H478.387C481.103 135.641 483.305 133.439 483.305 130.722V111.404C483.305 108.687 481.103 106.485 478.387 106.485Z"
      fill="#3D5AC4"/>
    <path
      id="Vector_102"
      d="M460.372 113.52H470.288C471.277 113.52 472.226 113.913 472.925 114.612C473.624 115.311 474.017 116.26 474.017 117.249V123.437C474.017 124.426 473.624 125.374 472.925 126.073C472.226 126.773 471.277 127.165 470.288 127.165H460.372V113.52Z"
      fill="#2F4DAB"/>
    <path id="Vector_103" d="M365.951 137.219L377.789 171.602" stroke="#231C61" stroke-width="2.16" stroke-miterlimit="10"/>
    <path id="Vector_104" d="M357.727 133.136L334.645 164.316" stroke="#231C61" stroke-width="2.16" stroke-miterlimit="10"/>
    <path
      id="Vector_105"
      d="M320.95 181.799L344.799 212.979C347.424 216.412 352.334 217.066 355.766 214.441L386.947 190.593C390.379 187.968 391.033 183.057 388.408 179.625L364.56 148.444C361.935 145.012 357.025 144.358 353.593 146.983L322.412 170.831C318.98 173.456 318.325 178.366 320.95 181.799Z"
      fill="#F5D100"/>
    <path
      id="Vector_106"
      d="M327.082 181.587L346.601 207.108C348.746 209.913 352.759 210.448 355.564 208.303L381.085 188.783C383.89 186.638 384.425 182.625 382.279 179.82L362.76 154.3C360.615 151.495 356.602 150.96 353.797 153.105L328.276 172.624C325.471 174.77 324.937 178.783 327.082 181.587Z"
      stroke="#231C61"
      stroke-width="1.11"
      stroke-miterlimit="10"/>
    <path
      id="Vector_107"
      d="M356.754 192.339C356.137 196.915 349.114 196.034 349.732 191.401C350.349 186.769 357.384 187.661 356.754 192.339ZM359.774 166.467L357.018 185.911L351.116 185.122C351.985 178.568 352.717 172.208 353.586 165.62L359.774 166.467Z"
      fill="#231C61"/>
    <path id="Vector_108" d="M362.577 140.125C368.041 140.125 372.47 135.695 372.47 130.231C372.47 124.767 368.041 120.337 362.577 120.337C357.112 120.337 352.683 124.767 352.683 130.231C352.683 135.695 357.112 140.125 362.577 140.125Z" fill="#231C61"/>
    <path
      id="Vector_109"
      d="M369.576 130.219C369.579 131.604 369.17 132.959 368.402 134.112C367.634 135.264 366.542 136.163 365.263 136.695C363.984 137.226 362.576 137.367 361.218 137.098C359.859 136.829 358.611 136.163 357.631 135.185C356.65 134.206 355.983 132.959 355.712 131.601C355.441 130.242 355.578 128.834 356.108 127.555C356.637 126.275 357.535 125.181 358.686 124.411C359.837 123.642 361.191 123.231 362.576 123.231C364.431 123.231 366.21 123.967 367.522 125.277C368.835 126.587 369.573 128.365 369.576 130.219V130.219Z"
      fill="#373482"/>
    <path id="Vector_110" d="M401.375 85.508V106.485" stroke="#3D5AC4" stroke-width="2.65" stroke-miterlimit="10"/>
    <path id="Vector_111" d="M382.57 85.508V106.485" stroke="#3D5AC4" stroke-width="2.65" stroke-miterlimit="10"/>
    <path id="Vector_112" d="M420.122 85.508V106.485" stroke="#3D5AC4" stroke-width="2.65" stroke-miterlimit="10"/>
    <path id="Vector_113" d="M440.95 85.508V106.485" stroke="#3D5AC4" stroke-width="2.65" stroke-miterlimit="10"/>
    <path id="Vector_114" d="M460.372 85.508V106.485" stroke="#3D5AC4" stroke-width="2.65" stroke-miterlimit="10"/>
    <path id="Vector_115" d="M480.514 85.508V106.485" stroke="#3D5AC4" stroke-width="2.65" stroke-miterlimit="10"/>
    <path id="Vector_116" d="M500.302 85.508V106.485" stroke="#3D5AC4" stroke-width="2.65" stroke-miterlimit="10"/>
    <path id="Vector_117" d="M381.587 106.485L401.374 85.508" stroke="#3D5AC4" stroke-width="2.65" stroke-miterlimit="10"/>
    <path id="Vector_118" d="M401.375 106.485L421.162 85.508" stroke="#3D5AC4" stroke-width="2.65" stroke-miterlimit="10"/>
    <path id="Vector_119" d="M421.162 106.485L440.95 85.508" stroke="#3D5AC4" stroke-width="2.65" stroke-miterlimit="10"/>
    <path id="Vector_120" d="M440.95 106.485L460.738 85.508" stroke="#3D5AC4" stroke-width="2.65" stroke-miterlimit="10"/>
    <path id="Vector_121" d="M460.738 106.485L480.514 85.508" stroke="#3D5AC4" stroke-width="2.65" stroke-miterlimit="10"/>
    <path id="Vector_122" d="M480.514 106.485L500.302 85.508" stroke="#3D5AC4" stroke-width="2.65" stroke-miterlimit="10"/>
    <path id="Vector_123" d="M362.577 106.485H523.899L502.178 85.508H379.265L362.577 106.485Z" stroke="#5571E9" stroke-width="2.65" stroke-linecap="round" stroke-linejoin="round"/>
    <path id="Vector_124" d="M362.577 106.485V130.231" stroke="#5571E9" stroke-width="2.65" stroke-linecap="round" stroke-linejoin="round"/>
    <path
      id="Vector_125"
      d="M277.294 331.357L288.584 302.168C288.7 301.858 288.907 301.591 289.179 301.402C289.451 301.213 289.774 301.112 290.105 301.112C290.436 301.112 290.759 301.213 291.031 301.402C291.302 301.591 291.51 301.858 291.626 302.168L302.915 331.357H277.294Z"
      fill="#F5D100"/>
    <g id="Group_4">
      <path id="Vector_126" d="M299.953 308.447H279.902V314.646H299.953V308.447Z" fill="#FAFAFA"/>
      <path id="Vector_127" d="M301.497 320.148H278.816V326.347H301.497V320.148Z" fill="#FAFAFA"/>
    </g>
    <path id="Vector_128" d="M305.112 331.358H275.224V333.817H305.112V331.358Z" fill="#E8C400"/>
    <path
      id="Vector_129"
      d="M441.259 331.438L452.559 302.259C452.675 301.949 452.883 301.682 453.155 301.494C453.427 301.305 453.75 301.204 454.081 301.204C454.412 301.204 454.734 301.305 455.006 301.494C455.278 301.682 455.486 301.949 455.602 302.259L466.891 331.438H441.259Z"
      fill="#F5D100"/>
    <g id="Group_5">
      <path id="Vector_130" d="M463.929 308.539H443.878V314.738H463.929V308.539Z" fill="#FAFAFA"/>
      <path id="Vector_131" d="M465.462 320.24H442.78V326.439H465.462V320.24Z" fill="#FAFAFA"/>
    </g>
    <path id="Vector_132" d="M469.087 331.449H439.2V333.908H469.087V331.449Z" fill="#E8C400"/>
    <path id="Vector_133" d="M239.15 286.012C241.057 273.204 232.22 261.274 219.411 259.366C206.603 257.459 194.673 266.296 192.765 279.105C190.858 291.914 199.695 303.843 212.504 305.751C225.313 307.658 237.243 298.821 239.15 286.012Z" fill="#5571E9"/>
    <path id="Vector_134" d="M215.964 274.213V333.817" stroke="#3D5AC4" stroke-width="1.14" stroke-linecap="round" stroke-linejoin="round"/>
    <path id="Vector_135" d="M206.836 275.437L215.964 285.663" stroke="#3D5AC4" stroke-width="1.14" stroke-linecap="round" stroke-linejoin="round"/>
    <path id="Vector_136" d="M224.05 285.091C223.398 285.743 215.964 293.486 215.964 293.486" stroke="#3D5AC4" stroke-width="1.14" stroke-linecap="round" stroke-linejoin="round"/>
    <path id="Vector_137" d="M145.368 334.389H538.734" stroke="#3D5AC4" stroke-width="1.14" stroke-linecap="round" stroke-linejoin="round"/>
  </g>
</svg>
